<svg width="389" height="80" viewBox="0 0 389 80" fill="none" xmlns="http://www.w3.org/2000/svg">
<path d="M34.2857 34.2857H45.7143V45.7143H34.2857V34.2857Z" fill="#A1C4EC"/>
<path d="M34.2857 45.7143H45.7143V57.1429H34.2857V45.7143Z" fill="#7CACE4"/>
<path d="M45.7143 45.7143H57.1429V57.1429H45.7143V45.7143Z" fill="#3477C4"/>
<path d="M57.1429 45.7143H68.5714V57.1429H57.1429V45.7143Z" fill="#1E4571"/>
<path d="M22.8571 45.7143H34.2857V57.1429H22.8571V45.7143Z" fill="#3477C4"/>
<path d="M11.4286 45.7143H22.8571V57.1429H11.4286V45.7143Z" fill="#1E4571"/>
<path d="M34.2857 57.1429H45.7143V68.5714H34.2857V57.1429Z" fill="#3477C4"/>
<path d="M22.8571 57.1429H34.2857V68.5714H22.8571V57.1429Z" fill="#1E4571"/>
<path d="M45.7143 57.1429H57.1429V68.5714H45.7143V57.1429Z" fill="#1E4571"/>
<path d="M34.2857 68.5714H45.7143V80H34.2857V68.5714Z" fill="#1E4571"/>
<path d="M22.8571 34.2857H34.2857V45.7143H22.8571V34.2857Z" fill="#7CACE4"/>
<path d="M11.4286 34.2857H22.8571V45.7143H11.4286V34.2857Z" fill="#3477C4"/>
<path d="M0 34.2857H11.4286V45.7143H0V34.2857Z" fill="#1E4571"/>
<path d="M45.7143 34.2857H57.1429V45.7143H45.7143V34.2857Z" fill="#7CACE4"/>
<path d="M57.1429 34.2857H68.5714V45.7143H57.1429V34.2857Z" fill="#3477C4"/>
<path d="M68.5714 34.2857H80V45.7143H68.5714V34.2857Z" fill="#1E4571"/>
<path d="M34.2857 22.8571H45.7143V34.2857H34.2857V22.8571Z" fill="#7CACE4"/>
<path d="M22.8571 22.8571H34.2857V34.2857H22.8571V22.8571Z" fill="#3477C4"/>
<path d="M22.8571 11.4286H34.2857V22.8571H22.8571V11.4286Z" fill="#1E4571"/>
<path d="M11.4286 22.8571H22.8571V34.2857H11.4286V22.8571Z" fill="#1E4571"/>
<path d="M45.7143 22.8571H57.1429V34.2857H45.7143V22.8571Z" fill="#3477C4"/>
<path d="M45.7143 11.4286H57.1429V22.8571H45.7143V11.4286Z" fill="#1E4571"/>
<path d="M57.1429 22.8571H68.5714V34.2857H57.1429V22.8571Z" fill="#1E4571"/>
<path d="M34.2857 11.4286H45.7143V22.8571H34.2857V11.4286Z" fill="#3477C4"/>
<path d="M34.2857 0H45.7143V11.4286H34.2857V0Z" fill="#1E4571"/>
<path d="M134.94 53.56H119.22L116.7 61H105.96L121.2 18.88H133.08L148.32 61H137.46L134.94 53.56ZM132.3 45.64L127.08 30.22L121.92 45.64H132.3Z" fill="#1E4571"/>
<path d="M173.358 27.16C177.278 27.16 180.398 28.44 182.718 31C185.078 33.52 186.258 37 186.258 41.44V61H176.058V42.82C176.058 40.58 175.478 38.84 174.318 37.6C173.158 36.36 171.598 35.74 169.638 35.74C167.678 35.74 166.118 36.36 164.958 37.6C163.798 38.84 163.218 40.58 163.218 42.82V61H152.958V27.52H163.218V31.96C164.258 30.48 165.658 29.32 167.418 28.48C169.178 27.6 171.158 27.16 173.358 27.16Z" fill="#1E4571"/>
<path d="M212.048 52.3V61H206.828C203.108 61 200.208 60.1 198.128 58.3C196.048 56.46 195.008 53.48 195.008 49.36V36.04H190.928V27.52H195.008V19.36H205.268V27.52H211.988V36.04H205.268V49.48C205.268 50.48 205.508 51.2 205.988 51.64C206.468 52.08 207.268 52.3 208.388 52.3H212.048Z" fill="#1E4571"/>
<path d="M233.003 61.48C229.723 61.48 226.763 60.78 224.123 59.38C221.523 57.98 219.463 55.98 217.943 53.38C216.463 50.78 215.723 47.74 215.723 44.26C215.723 40.82 216.483 37.8 218.003 35.2C219.523 32.56 221.603 30.54 224.243 29.14C226.883 27.74 229.843 27.04 233.123 27.04C236.403 27.04 239.363 27.74 242.003 29.14C244.643 30.54 246.723 32.56 248.243 35.2C249.763 37.8 250.523 40.82 250.523 44.26C250.523 47.7 249.743 50.74 248.183 53.38C246.663 55.98 244.563 57.98 241.883 59.38C239.243 60.78 236.283 61.48 233.003 61.48ZM233.003 52.6C234.963 52.6 236.623 51.88 237.983 50.44C239.383 49 240.083 46.94 240.083 44.26C240.083 41.58 239.403 39.52 238.043 38.08C236.723 36.64 235.083 35.92 233.123 35.92C231.123 35.92 229.463 36.64 228.143 38.08C226.823 39.48 226.163 41.54 226.163 44.26C226.163 46.94 226.803 49 228.083 50.44C229.403 51.88 231.043 52.6 233.003 52.6Z" fill="#1E4571"/>
<path d="M261.126 24.04C259.326 24.04 257.846 23.52 256.686 22.48C255.566 21.4 255.006 20.08 255.006 18.52C255.006 16.92 255.566 15.6 256.686 14.56C257.846 13.48 259.326 12.94 261.126 12.94C262.886 12.94 264.326 13.48 265.446 14.56C266.606 15.6 267.186 16.92 267.186 18.52C267.186 20.08 266.606 21.4 265.446 22.48C264.326 23.52 262.886 24.04 261.126 24.04ZM266.226 27.52V61H255.966V27.52H266.226Z" fill="#1E4571"/>
<path d="M294.061 27.16C297.981 27.16 301.101 28.44 303.421 31C305.781 33.52 306.961 37 306.961 41.44V61H296.761V42.82C296.761 40.58 296.181 38.84 295.021 37.6C293.861 36.36 292.301 35.74 290.341 35.74C288.381 35.74 286.821 36.36 285.661 37.6C284.501 38.84 283.921 40.58 283.921 42.82V61H273.661V27.52H283.921V31.96C284.961 30.48 286.361 29.32 288.121 28.48C289.881 27.6 291.861 27.16 294.061 27.16Z" fill="#1E4571"/>
<path d="M345.651 43.72C345.651 44.68 345.591 45.68 345.471 46.72H322.251C322.411 48.8 323.071 50.4 324.231 51.52C325.431 52.6 326.891 53.14 328.611 53.14C331.171 53.14 332.951 52.06 333.951 49.9H344.871C344.311 52.1 343.291 54.08 341.811 55.84C340.371 57.6 338.551 58.98 336.351 59.98C334.151 60.98 331.691 61.48 328.971 61.48C325.691 61.48 322.771 60.78 320.211 59.38C317.651 57.98 315.651 55.98 314.211 53.38C312.771 50.78 312.051 47.74 312.051 44.26C312.051 40.78 312.751 37.74 314.151 35.14C315.591 32.54 317.591 30.54 320.151 29.14C322.711 27.74 325.651 27.04 328.971 27.04C332.211 27.04 335.091 27.72 337.611 29.08C340.131 30.44 342.091 32.38 343.491 34.9C344.931 37.42 345.651 40.36 345.651 43.72ZM335.151 41.02C335.151 39.26 334.551 37.86 333.351 36.82C332.151 35.78 330.651 35.26 328.851 35.26C327.131 35.26 325.671 35.76 324.471 36.76C323.311 37.76 322.591 39.18 322.311 41.02H335.151Z" fill="#1E4571"/>
<path d="M366.844 18.88C371.284 18.88 375.164 19.76 378.484 21.52C381.804 23.28 384.364 25.76 386.164 28.96C388.004 32.12 388.924 35.78 388.924 39.94C388.924 44.06 388.004 47.72 386.164 50.92C384.364 54.12 381.784 56.6 378.424 58.36C375.104 60.12 371.244 61 366.844 61H351.064V18.88H366.844ZM366.184 52.12C370.064 52.12 373.084 51.06 375.244 48.94C377.404 46.82 378.484 43.82 378.484 39.94C378.484 36.06 377.404 33.04 375.244 30.88C373.084 28.72 370.064 27.64 366.184 27.64H361.324V52.12H366.184Z" fill="#1E4571"/>
</svg>
