<svg width="32" height="35" viewBox="0 0 32 35" fill="none" xmlns="http://www.w3.org/2000/svg">
<path d="M17.3617 35C10.9018 35 4.69302 31.3371 1.71512 25.0719C-0.287479 20.8578 -0.545598 16.1082 0.989262 11.698C2.52412 7.28787 5.6666 3.74576 9.83809 1.7227C12.1924 0.579913 14.7839 -0.0693576 17.3981 0.00589482C19.12 0.0548964 19.6934 1.34294 18.0667 2.31772C12.9043 5.41182 10.6159 13.8383 13.1261 19.12C15.444 23.9957 21.9922 29.2983 29.5262 26.5122C30.5327 26.1395 31.7436 27.1703 30.7267 28.5913C29.2456 30.6599 27.1079 32.1719 24.8316 33.2762C22.4201 34.4452 19.8701 34.9982 17.3617 35Z" fill="#9EBFE5"/>
</svg>
