<svg width="36" height="35" viewBox="0 0 36 35" fill="none" xmlns="http://www.w3.org/2000/svg">
<path d="M16.8466 0V4.375H19.7633V0H16.8466ZM6.96297 4.09587L4.9008 6.15804L7.99406 9.2513L10.0562 7.18913L6.96297 4.09587ZM29.6469 4.09587L26.5536 7.18913L28.6158 9.2513L31.7091 6.15804L29.6469 4.09587ZM18.3049 7.29167C12.6843 7.29167 8.0966 11.8794 8.0966 17.5C8.0966 23.1206 12.6843 27.7083 18.3049 27.7083C23.9256 27.7083 28.5133 23.1206 28.5133 17.5C28.5133 11.8794 23.9256 7.29167 18.3049 7.29167ZM18.3049 10.2083C22.3493 10.2083 25.5966 13.4557 25.5966 17.5C25.5966 21.5443 22.3493 24.7917 18.3049 24.7917C14.2606 24.7917 11.0133 21.5443 11.0133 17.5C11.0133 13.4557 14.2606 10.2083 18.3049 10.2083ZM0.804932 16.0417V18.9583H5.17993V16.0417H0.804932ZM31.4299 16.0417V18.9583H35.8049V16.0417H31.4299ZM7.99406 25.7487L4.9008 28.842L6.96297 30.9041L10.0562 27.8109L7.99406 25.7487ZM28.6158 25.7487L26.5536 27.8109L29.6469 30.9041L31.7091 28.842L28.6158 25.7487ZM16.8466 30.625V35H19.7633V30.625H16.8466Z" fill="#295E9A"/>
</svg>
