<svg width="81" height="80" viewBox="0 0 81 80" fill="none" xmlns="http://www.w3.org/2000/svg">
<path d="M35.0125 34.2857H46.4411V45.7143H35.0125V34.2857Z" fill="#A1C4EC"/>
<path d="M35.0125 45.7143H46.4411V57.1429H35.0125V45.7143Z" fill="#7CACE4"/>
<path d="M46.4411 45.7143H57.8697V57.1429H46.4411V45.7143Z" fill="#3477C4"/>
<path d="M57.8697 45.7143H69.2982V57.1429H57.8697V45.7143Z" fill="#1E4571"/>
<path d="M23.584 45.7143H35.0125V57.1429H23.584V45.7143Z" fill="#3477C4"/>
<path d="M12.1554 45.7143H23.584V57.1429H12.1554V45.7143Z" fill="#1E4571"/>
<path d="M35.0125 57.1429H46.4411V68.5714H35.0125V57.1429Z" fill="#3477C4"/>
<path d="M23.584 57.1429H35.0125V68.5714H23.584V57.1429Z" fill="#1E4571"/>
<path d="M46.4411 57.1429H57.8697V68.5714H46.4411V57.1429Z" fill="#1E4571"/>
<path d="M35.0125 68.5714H46.4411V80H35.0125V68.5714Z" fill="#1E4571"/>
<path d="M23.584 34.2857H35.0125V45.7143H23.584V34.2857Z" fill="#7CACE4"/>
<path d="M12.1554 34.2857H23.584V45.7143H12.1554V34.2857Z" fill="#3477C4"/>
<path d="M0.726807 34.2857H12.1554V45.7143H0.726807V34.2857Z" fill="#1E4571"/>
<path d="M46.4411 34.2857H57.8697V45.7143H46.4411V34.2857Z" fill="#7CACE4"/>
<path d="M57.8697 34.2857H69.2982V45.7143H57.8697V34.2857Z" fill="#3477C4"/>
<path d="M69.2982 34.2857H80.7268V45.7143H69.2982V34.2857Z" fill="#1E4571"/>
<path d="M35.0125 22.8571H46.4411V34.2857H35.0125V22.8571Z" fill="#7CACE4"/>
<path d="M23.584 22.8571H35.0125V34.2857H23.584V22.8571Z" fill="#3477C4"/>
<path d="M23.584 11.4286H35.0125V22.8571H23.584V11.4286Z" fill="#1E4571"/>
<path d="M12.1554 22.8571H23.584V34.2857H12.1554V22.8571Z" fill="#1E4571"/>
<path d="M46.4411 22.8571H57.8697V34.2857H46.4411V22.8571Z" fill="#3477C4"/>
<path d="M46.4411 11.4286H57.8697V22.8571H46.4411V11.4286Z" fill="#1E4571"/>
<path d="M57.8697 22.8571H69.2982V34.2857H57.8697V22.8571Z" fill="#1E4571"/>
<path d="M35.0125 11.4286H46.4411V22.8571H35.0125V11.4286Z" fill="#3477C4"/>
<path d="M35.0125 0H46.4411V11.4286H35.0125V0Z" fill="#1E4571"/>
</svg>
